<svg xmlns="http://www.w3.org/2000/svg" width="50" height="50"><defs><clipPath id="clip-Artboard_48"><path d="M0 0h50v50H0z"/></clipPath></defs><g id="Artboard_48" data-name="Artboard – 48" clip-path="url(#clip-Artboard_48)"><path id="Icon_awesome-box" data-name="Icon awesome-box" d="M35.824 12.98L32.266 2.306A3.366 3.366 0 0029.067 0h-9.942v13.5h16.784a3.212 3.212 0 00-.085-.52zM16.875 0H6.933a3.366 3.366 0 00-3.2 2.306L.176 12.98a3.211 3.211 0 00-.084.52h16.783zM0 15.75v16.875A3.376 3.376 0 003.375 36h29.25A3.376 3.376 0 0036 32.625V15.75z" transform="translate(7.593 7.734)" fill="#2595ff"/></g></svg>