<svg xmlns="http://www.w3.org/2000/svg" width="50" height="50"><defs><clipPath id="clip-Artboard_49"><path d="M0 0h50v50H0z"/></clipPath></defs><g id="Artboard_49" data-name="Artboard – 49" clip-path="url(#clip-Artboard_49)"><path id="Icon_awesome-building" data-name="Icon awesome-building" d="M29.192 32.138h-1.339V1.607A1.607 1.607 0 0026.246 0H3.749a1.607 1.607 0 00-1.606 1.607v30.531H.8a.8.8 0 00-.8.8v1.342h30v-1.339a.8.8 0 00-.808-.803zM8.57 5.088a.8.8 0 01.8-.8h2.678a.8.8 0 01.8.8v2.679a.8.8 0 01-.8.8H9.374a.8.8 0 01-.8-.8zm0 6.428a.8.8 0 01.8-.8h2.678a.8.8 0 01.8.8v2.678a.8.8 0 01-.8.8H9.374a.8.8 0 01-.8-.8zm3.482 9.909H9.374a.8.8 0 01-.8-.8v-2.681a.8.8 0 01.8-.8h2.678a.8.8 0 01.8.8v2.678a.8.8 0 01-.8.803zm5.088 10.713h-4.285v-5.624a.8.8 0 01.8-.8h2.678a.8.8 0 01.8.8zm4.285-11.516a.8.8 0 01-.8.8h-2.681a.8.8 0 01-.8-.8v-2.678a.8.8 0 01.8-.8h2.678a.8.8 0 01.8.8zm0-6.428a.8.8 0 01-.8.8h-2.681a.8.8 0 01-.8-.8v-2.678a.8.8 0 01.8-.8h2.678a.8.8 0 01.8.8zm0-6.428a.8.8 0 01-.8.8h-2.681a.8.8 0 01-.8-.8V5.088a.8.8 0 01.8-.8h2.678a.8.8 0 01.8.8z" transform="translate(11 8.453)" fill="#2595ff"/></g></svg>