<svg xmlns="http://www.w3.org/2000/svg" width="50" height="50"><defs><clipPath id="clip-Artboard_47"><path d="M0 0h50v50H0z"/></clipPath><style>.cls-2{fill:#2595ff}</style></defs><g id="Artboard_47" data-name="Artboard – 47" clip-path="url(#clip-Artboard_47)"><g id="Icon_ionic-ios-cart" data-name="Icon ionic-ios-cart" transform="translate(-1.465 -.67)"><path id="Path_186" data-name="Path 186" class="cls-2" d="M14.988 30.838a2.713 2.713 0 11-2.713-2.713 2.713 2.713 0 012.713 2.713z" transform="translate(3.755 14.358)"/><path id="Path_187" data-name="Path 187" class="cls-2" d="M30.773 30.838a2.713 2.713 0 11-2.713-2.713 2.713 2.713 0 012.713 2.713z" transform="translate(13.346 14.358)"/><path id="Path_188" data-name="Path 188" class="cls-2" d="M50.37 12.213a.665.665 0 00-.588-.475l-36.815-3.56a1.133 1.133 0 01-.848-.531 11.51 11.51 0 00-1.379-2.1c-.87-1.065-2.509-1.031-5.516-1.054a1.647 1.647 0 00-1.842 1.594 1.616 1.616 0 001.763 1.594 15.018 15.018 0 012.939.219c.531.158.961 1.029 1.119 1.786a.042.042 0 00.011.034c.023.136.226 1.153.226 1.164L13.962 34.8a8.79 8.79 0 001.638 4.032 4.511 4.511 0 003.719 1.831h26.744a1.607 1.607 0 001.628-1.515 1.575 1.575 0 00-1.582-1.65H19.3a1.313 1.313 0 01-.938-.316 5.072 5.072 0 01-1.3-2.939l-.486-2.679a.062.062 0 01.045-.068l31.389-5.313a.66.66 0 00.554-.588l1.806-13.088a.645.645 0 000-.294z"/></g></g></svg>