<svg xmlns="http://www.w3.org/2000/svg" width="50" height="50"><defs><clipPath id="clip-Artboard_51"><path d="M0 0h50v50H0z"/></clipPath></defs><g id="Artboard_51" data-name="Artboard – 51" clip-path="url(#clip-Artboard_51)"><path id="Icon_map-health" data-name="Icon map-health" d="M35.28 12.24a.722.722 0 00-.72-.72H25.2a.722.722 0 01-.72-.72V1.44a.722.722 0 00-.72-.72H12.24a.722.722 0 00-.72.72v9.36a.722.722 0 01-.72.72H1.44a.722.722 0 00-.72.72v11.52a.722.722 0 00.72.72h9.36a.722.722 0 01.72.72v9.36a.722.722 0 00.72.72h11.52a.722.722 0 00.72-.72V25.2a.722.722 0 01.72-.72h9.36a.722.722 0 00.72-.72z" transform="translate(7.929 7.734)" fill="#2595ff"/></g></svg>