<svg xmlns="http://www.w3.org/2000/svg" width="50" height="50"><defs><clipPath id="clip-Artboard_46"><path d="M0 0h50v50H0z"/></clipPath></defs><g id="Artboard_46" data-name="Artboard – 46" clip-path="url(#clip-Artboard_46)"><path id="Icon_map-food" data-name="Icon map-food" d="M50.609 14.523l-4.1 32.131H32.666l-4.083-32.291h16.9l3.343-11.538 1.894.575-3.205 11.1 3.095.024zm-23.983 18.59s.518-4.167-6.661-4.167H8.531c-7.169 0-6.661 4.167-6.661 4.167h24.756zM1.87 42.488s-.507 4.167 6.661 4.167h11.435c7.179 0 6.661-4.167 6.661-4.167H1.87zM25.552 40.4a2.4 2.4 0 002.124-2.6 2.393 2.393 0 00-2.124-2.6H2.845A2.4 2.4 0 00.72 37.8a2.4 2.4 0 002.125 2.6h22.707z" transform="translate(-.72 -.002)" fill="#2595ff"/></g></svg>